<svg xmlns="http://www.w3.org/2000/svg" xmlns:svg="http://www.w3.org/2000/svg" id="svg43" width="64" height="64" x="0" y="0" version="1.1" viewBox="0 0 64 64" xml:space="preserve"><metadata id="metadata49"/><path id="path37" d="m 49,34 v -4 c 0,-1.1 -0.9,-2 -2,-2 H 36 V 17 c 0,-1.1 -0.9,-2 -2,-2 h -4 c -1.1,0 -2,0.9 -2,2 V 28 H 17 c -1.1,0 -2,0.9 -2,2 v 4 c 0,1.1 0.9,2 2,2 h 11 v 11 c 0,1.1 0.9,2 2,2 h 4 c 1.1,0 2,-0.9 2,-2 V 36 h 11 c 1.1,0 2,-0.9 2,-2 z M 34,34 V 47 H 30 V 34 H 17 V 30 H 30 V 17 h 4 v 13 h 13 v 4 z M 52,0 H 41 c -1.1,0 -2,0.9 -2,2 v 4 c 0,1.1 0.9,2 2,2 h 11 c 2.2,0 4,1.8 4,4 v 11 c 0,1.1 0.9,2 2,2 h 4 c 1.1,0 2,-0.9 2,-2 V 12 C 64,5.4 58.6,0 52,0 Z M 62,23 H 58 V 12 C 58,8.7 55.3,6 52,6 H 41 V 2 h 11 c 5.5,0 10,4.5 10,10 z M 2,25 h 4 c 1.1,0 2,-0.9 2,-2 V 12 C 8,9.8 9.8,8 12,8 h 11 c 1.1,0 2,-0.9 2,-2 V 2 C 25,0.9 24.1,0 23,0 H 12 C 5.4,0 0,5.4 0,12 v 11 c 0,1.1 0.9,2 2,2 z M 2,12 C 2,6.5 6.5,2 12,2 H 23 V 6 H 12 C 8.7,6 6,8.7 6,12 V 23 H 2 Z m 60,27 h -4 c -1.1,0 -2,0.9 -2,2 v 11 c 0,2.2 -1.8,4 -4,4 H 41 c -1.1,0 -2,0.9 -2,2 v 4 c 0,1.1 0.9,2 2,2 h 11 c 6.6,0 12,-5.4 12,-12 V 41 c 0,-1.1 -0.9,-2 -2,-2 z m 0,13 c 0,5.5 -4.5,10 -10,10 H 41 v -4 h 11 c 3.3,0 6,-2.7 6,-6 V 41 h 4 z M 23,56 H 12 C 9.8,56 8,54.2 8,52 V 41 C 8,39.9 7.1,39 6,39 H 2 c -1.1,0 -2,0.9 -2,2 v 11 c 0,6.6 5.4,12 12,12 h 11 c 1.1,0 2,-0.9 2,-2 v -4 c 0,-1.1 -0.9,-2 -2,-2 z m 0,6 H 12 C 6.5,62 2,57.5 2,52 V 41 h 4 v 11 c 0,3.3 2.7,6 6,6 h 11 z"/></svg>