<svg xmlns="http://www.w3.org/2000/svg" xmlns:svg="http://www.w3.org/2000/svg" id="svg3727" width="83.5" height="81" x="0" y="0" enable-background="new 0 0 100 100" version="1.1" viewBox="0 0 83.5 81" xml:space="preserve"><metadata id="metadata3733"/><path id="path3721" d="M 51,41.75 H 44.25 V 2.5 C 44.25,1.119 43.131,0 41.75,0 40.369,0 39.25,1.119 39.25,2.5 V 41.75 H 32.5 c -1.381,0 -2.5,1.119 -2.5,2.5 v 18.5 c 0,1.381 1.119,2.5 2.5,2.5 h 6.75 V 78.5 c 0,1.381 1.119,2.5 2.5,2.5 1.381,0 2.5,-1.119 2.5,-2.5 V 65.25 H 51 c 1.381,0 2.5,-1.119 2.5,-2.5 v -18.5 c 0,-1.381 -1.119,-2.5 -2.5,-2.5 z m -2.5,18.5 H 35 V 46.75 H 48.5 Z M 21,15.75 H 14.25 V 2.5 C 14.25,1.119 13.131,0 11.75,0 10.369,0 9.25,1.119 9.25,2.5 V 15.75 H 2.5 c -1.381,0 -2.5,1.119 -2.5,2.5 v 18.5 c 0,1.381 1.119,2.5 2.5,2.5 H 9.25 V 78.5 c 0,1.381 1.119,2.5 2.5,2.5 1.381,0 2.5,-1.119 2.5,-2.5 V 39.25 H 21 c 1.381,0 2.5,-1.119 2.5,-2.5 v -18.5 c 0,-1.381 -1.119,-2.5 -2.5,-2.5 z m -2.5,18.5 H 5 V 20.75 H 18.5 Z M 81,15.75 H 74.25 V 2.5 C 74.25,1.119 73.131,0 71.75,0 70.369,0 69.25,1.119 69.25,2.5 V 15.75 H 62.5 c -1.381,0 -2.5,1.119 -2.5,2.5 v 18.5 c 0,1.381 1.119,2.5 2.5,2.5 h 6.75 V 78.5 c 0,1.381 1.119,2.5 2.5,2.5 1.381,0 2.5,-1.119 2.5,-2.5 V 39.25 H 81 c 1.381,0 2.5,-1.119 2.5,-2.5 v -18.5 c 0,-1.381 -1.119,-2.5 -2.5,-2.5 z m -2.5,18.5 H 65 v -13.5 h 13.5 z"/></svg>